<svg width="32" height="32" viewBox="0 0 32 32" fill="none" xmlns="http://www.w3.org/2000/svg">
<path d="M6.78578 16.0179C6.78578 16.3393 6.89293 16.6071 7.10721 16.8214L13.5715 23.2857L15.1965 24.9107C15.4108 25.125 15.6786 25.2321 16.0001 25.2321C16.3215 25.2321 16.5894 25.125 16.8036 24.9107L18.4286 23.2857L24.8929 16.8214C25.1072 16.6071 25.2144 16.3393 25.2144 16.0179C25.2144 15.6964 25.1072 15.4286 24.8929 15.2143L23.2679 13.5893C23.0536 13.375 22.7858 13.2679 22.4644 13.2679C22.1429 13.2679 21.8751 13.375 21.6608 13.5893L18.2858 16.9643L18.2858 8C18.2858 7.69048 18.1727 7.42262 17.9465 7.19643C17.7203 6.97024 17.4525 6.85714 17.1429 6.85714L14.8572 6.85714C14.5477 6.85714 14.2798 6.97024 14.0536 7.19643C13.8275 7.42262 13.7144 7.69048 13.7144 8L13.7144 16.9643L10.3394 13.5893C10.1132 13.3631 9.84531 13.25 9.53579 13.25C9.22626 13.25 8.9584 13.3631 8.73221 13.5893L7.10721 15.2143C6.89293 15.4286 6.78578 15.6964 6.78578 16.0179ZM2.28578 16C2.28578 13.5119 2.89888 11.2173 4.12507 9.11607C5.35126 7.01488 7.01495 5.35119 9.11614 4.125C11.2173 2.89881 13.512 2.28571 16.0001 2.28571C18.4882 2.28571 20.7828 2.89881 22.884 4.125C24.9852 5.35119 26.6489 7.01488 27.8751 9.11607C29.1013 11.2173 29.7144 13.5119 29.7144 16C29.7144 18.4881 29.1013 20.7827 27.8751 22.8839C26.6489 24.9851 24.9852 26.6488 22.884 27.875C20.7828 29.1012 18.4882 29.7143 16.0001 29.7143C13.512 29.7143 11.2173 29.1012 9.11614 27.875C7.01495 26.6488 5.35126 24.9851 4.12507 22.8839C2.89888 20.7827 2.28578 18.4881 2.28578 16Z" fill="#0069FF"/>
</svg>
