<svg width="214" height="200" viewBox="0 0 214 200" fill="none" xmlns="http://www.w3.org/2000/svg">
<path d="M43 86.5L44 92L55.5 91V86.5L48.5 82.5L43 86.5Z" fill="white"/>
<path d="M37 118L44 119.5L47 122.5L55 118L58.5 107V99L47.5 92L35.5 95.5L32.5 96L30.5 103L37 118Z" fill="white"/>
<path fill-rule="evenodd" clip-rule="evenodd" d="M49.6611 109.42C49.9212 110.677 49.6302 111.988 49.1544 113.18C49.2736 113.293 49.3928 113.407 49.512 113.52C51.8927 111.666 54.3105 109.773 56.0415 107.301C56.7707 106.259 55.9092 104.739 54.7413 104.237C53.5735 103.735 52.2456 103.89 50.9757 103.836C49.4477 103.771 47.934 103.386 46.5603 102.714C44.5659 101.737 42.7357 100.126 40.5155 100.093C40.2705 100.089 40.008 100.112 39.8154 100.264C39.3458 100.634 39.6327 101.387 39.9854 101.87C41.7357 104.266 44.3597 106.008 47.2465 106.691C48.4942 106.987 49.401 108.164 49.6611 109.42Z" fill="#0069FF"/>
<path fill-rule="evenodd" clip-rule="evenodd" d="M61.1219 107.67L44.3043 134L156.705 133.716L154.573 124.157C152.405 114.435 154.2 104.25 159.56 95.8572L176.974 68.5944C178.689 65.9086 179.264 62.6494 178.57 59.5385C177.13 53.0845 170.734 49.0202 164.283 50.4606L132.722 57.5081C123.006 59.6777 112.826 57.8818 104.438 52.5182L77.1896 35.0955C74.5052 33.3791 71.2477 32.8044 68.1386 33.4987C61.688 34.9391 57.6258 41.3388 59.0654 47.7929L66.1092 79.3705C68.2777 89.0918 66.4827 99.2769 61.1219 107.67Z" fill="#0069FF"/>
<path d="M198.965 133.725C198.965 133.725 57.5248 133.8 1.52545 133.725C-2.86992 124.138 2.65959 111.328 12.6485 107.957C9.5224 111.525 6.39627 115.093 3.27014 118.661C8.76257 118.606 198.965 118.661 198.965 118.661V133.725Z" fill="white"/>
<path fill-rule="evenodd" clip-rule="evenodd" d="M124.1 23.8193C124.599 23.2499 125.584 23.2078 126.13 23.7325C124.367 20.2387 119.209 19.1914 118.101 15.4378C116.682 10.6329 114.59 6.02764 111.903 1.79927C110.786 5.95643 108.65 9.83579 105.737 13.0032C104.978 13.0067 104.22 13.0101 103.462 13.0135C101.74 13.0213 100.003 13.0307 98.3207 13.4011C95.2946 14.0676 92.5824 15.8731 89.5166 16.3224C89.7438 16.0377 89.971 15.7529 90.1981 15.4682C90.1349 15.1743 89.7093 15.0399 89.4889 15.2442C89.1007 13.6987 87.8497 12.4851 86.4306 11.7616C85.0114 11.0382 82.9188 9.69162 78.7305 10.0458C83.8122 15.7375 82.2384 39.4326 83.4887 43.9231C83.915 44.037 84.2414 43.5707 84.5187 43.2272C84.796 42.8838 85.4435 42.6729 85.5933 43.0882C86.6343 45.9752 86.7822 50.4178 89.973 52.1379C90.5888 52.4699 90.955 51.8498 90.9073 51.5476C90.8462 51.1617 91.3095 50.8643 91.6956 50.923C92.0817 50.9816 92.3903 51.2614 92.6915 51.5102C97.767 55.7031 106.078 53.5418 111.159 57.7275C112.163 58.5545 113.048 59.6324 114.301 59.9806C115.049 60.1884 115.846 60.1065 116.61 59.9694C121.158 59.1538 125.208 56.4535 128.367 53.0791C131.526 49.7047 133.885 45.6699 136.081 41.6018C134.058 40.4554 131.931 39.2057 130.831 37.1555C129.965 35.5402 129.433 33.2246 127.611 33.0272C128.189 34.9047 128.767 36.7822 129.344 38.6597C129.556 39.3472 129.77 40.0641 129.658 40.7747C129.546 41.4853 129.003 42.1833 128.285 42.2194C127.311 42.2683 126.625 41.1649 125.657 41.0392C125.474 44.6707 124.08 48.2306 121.75 51.0206C120.941 51.9887 119.386 52.8678 118.565 51.9098C119.811 49.8963 121.057 47.8829 122.302 45.8694C123.079 44.6146 123.875 43.3018 124.017 41.833C124.16 40.3641 123.432 38.698 122.02 38.2697C121.957 37.8814 122.367 37.5478 122.76 37.5363C123.153 37.5247 123.515 37.7328 123.852 37.9344C125.109 38.6842 126.366 39.4341 127.622 40.184C127.221 37.2028 126.401 34.2784 125.194 31.5235C126.364 31.4127 127.56 31.5915 128.646 32.0396C127.809 29.6194 126.276 27.4447 124.278 25.8445C123.687 25.3712 123.601 24.3886 124.1 23.8193Z" fill="white"/>
<path fill-rule="evenodd" clip-rule="evenodd" d="M99.0063 17.395C100.041 18.0806 100.858 19.0914 101.311 20.2479C101.452 20.6076 101.852 20.7811 102.122 21.0572C102.392 21.3333 102.436 21.9236 102.058 22.0007C101.893 22.0344 101.73 21.9432 101.585 21.8567C99.2645 20.4701 96.4421 19.3505 93.91 20.2976C94.3264 20.5103 94.5366 21.0563 94.3705 21.4935C94.8873 21.5122 95.3691 21.7447 95.8334 21.9727C96.2423 22.1734 96.6511 22.3742 97.06 22.5749C97.0172 22.6957 96.9743 22.8165 96.9315 22.9373C95.0829 21.9955 92.8248 21.8976 90.9017 22.6758C91.5409 22.7729 92.192 22.7907 92.8356 22.7285C93.7739 23.2017 94.7122 23.6749 95.6505 24.148C95.8593 24.2533 96.0794 24.369 96.1969 24.5712C96.3143 24.7735 96.2697 25.087 96.0513 25.1704C94.3558 23.6743 91.9575 23.0127 89.7354 23.4282C89.476 23.4767 89.2986 23.1148 89.4087 22.8749C89.5188 22.6351 89.7826 22.512 90.0281 22.4153C91.2599 21.93 92.559 21.6161 93.8764 21.4855C93.2174 20.8743 92.4541 20.3759 91.6295 20.0186C91.4938 19.5539 92.1638 19.1086 92.5393 19.4138C95.3924 18.8543 98.449 19.4095 100.923 20.9369C100.944 20.4512 100.584 20.0429 100.247 19.6925C99.1944 18.5974 98.1415 17.5023 97.0886 16.4072C98.9323 16.6409 100.739 17.1603 102.426 17.9411C102.807 18.1177 103.184 18.3084 103.53 18.5477C104.831 19.449 105.605 21.0613 105.496 22.6409C104.707 20.974 103.46 19.5275 101.927 18.5035C101.051 17.9182 100.058 17.4624 99.0063 17.395V17.395Z" fill="#E7EAEE"/>
<path fill-rule="evenodd" clip-rule="evenodd" d="M31.988 96.1786C29.3182 98.5763 29.5512 102.819 30.5149 106.276C31.7546 110.724 33.8511 114.932 36.6553 118.599L3.27014 118.935L12.6485 108.23C2.65959 111.601 -2.86992 124.412 1.52545 133.999C57.5248 134.073 113.524 133.959 169.523 133.655C159.309 140.561 149.408 148.94 144.661 160.324C139.915 171.707 141.881 186.674 151.97 193.76C155.729 196.4 160.241 197.752 164.753 198.607C169.405 199.489 175.038 199.526 177.909 195.759C179.586 193.559 178.785 190.108 177.992 186.694C177.439 184.312 176.89 181.95 177.19 180.043C178.207 173.579 182.556 170.3 187.52 166.56L187.52 166.56C188.562 165.774 189.632 164.968 190.704 164.107C199.853 156.76 210.342 147.471 213.012 136.041C215.451 125.6 212.767 115.244 205.791 107.105C203.279 104.174 200.192 101.507 197.089 98.8259C192.919 95.2235 188.721 91.5969 185.854 87.2743C184.104 84.6347 183.49 81.8129 182.846 78.8517C182.615 77.7889 182.38 76.7082 182.087 75.6115C178.326 61.5302 164.916 54.2901 151.107 46.8349C149.359 45.8906 147.603 44.943 145.86 43.9775C137.869 39.5508 129.804 33.8845 127.238 25.0146C128.653 25.0698 129.177 22.9418 128.362 21.7833C127.756 20.9217 126.798 20.4369 125.842 19.9534C125.513 19.7867 125.184 19.6201 124.87 19.4383C121.952 17.7506 120.279 14.3076 118.566 10.7816C115.993 5.48435 113.328 0 106.214 0C105.946 1.79725 106.223 3.39839 106.483 4.89855C106.885 7.21693 107.245 9.29412 105.485 11.4812C100.443 10.9218 95.2311 12.0248 90.8478 14.5789C88.3137 9.76529 81.8867 7.70906 76.677 9.26752C77.3367 10.0984 77.7279 10.5151 78.0522 10.8606C78.7374 11.5903 79.1239 12.002 81.1115 15.3276C84.0402 20.2275 82.1847 38.2406 81.7213 41.0885C81.2578 43.9365 83.451 45.9604 85.457 44.554C84.4799 48.7753 88.0005 52.8036 92.3294 52.9251C93.8079 53.1889 94.7267 53.9045 95.595 54.5808C96.1352 55.0015 96.6558 55.407 97.2794 55.6791C83.5338 65.5161 68.3171 73.2915 52.2937 78.6659L52.0118 78.7603C49.0137 79.7643 45.8797 80.8137 43.7569 83.1448C41.5674 85.549 41.0533 89.817 43.6011 91.8371C42.0455 93.2485 39.9165 93.6323 37.7868 94.0162C35.6659 94.3985 33.5444 94.7809 31.988 96.1786ZM173.985 115.216C171.504 117.561 166.647 117.684 163.234 117.67L118.975 117.489C117.696 115.789 118.487 113.176 120.139 111.837C121.79 110.497 124.014 110.137 126.134 109.969C132.975 109.427 139.933 110.41 146.357 112.827C148.16 113.148 149.53 110.871 149.094 109.091C148.658 107.31 147.143 106.037 145.734 104.865C141.187 101.086 136.728 96.8301 134.594 91.3146C132.381 85.5948 133.023 78.847 136.275 73.6478C130.815 78.1863 129.668 86.529 132.12 93.1942C134.572 99.8595 139.957 105.044 145.792 109.089C142.605 109.743 139.297 109.015 136.022 108.294C132.054 107.42 128.135 106.558 124.541 108.178L123.8 87.9521L121.879 105.681C121.736 106.999 121.321 108.629 120.019 108.875C116.485 109.54 114.389 114.171 116.222 117.268C114.642 118.334 112.233 117.857 111.178 116.269C110.124 114.681 110.618 112.274 112.212 111.23C116.08 108.699 116.386 103.246 116.281 98.6231L115.555 66.7052C115.537 65.9347 115.711 64.9218 116.474 64.8157C127.641 63.2633 137.57 54.8681 140.962 44.1102C150.859 48.5459 160.757 53.6604 168.743 60.704C187.018 76.8229 182.006 90.2258 180.694 93.732L180.694 93.7322C180.464 94.3463 180.348 94.6568 180.491 94.6248C181.402 94.421 181.835 93.3944 182.087 92.4949C182.676 90.3937 183.06 88.2348 183.231 86.059C186.247 91.6651 191.049 95.9246 195.861 100.193L195.861 100.193L195.861 100.193C200.259 104.094 204.665 108.002 207.723 112.952C212.438 120.586 213.425 130.41 210.323 138.83C206.658 148.777 198.234 155.735 189.926 162.597C187.93 164.246 185.94 165.89 184.025 167.568C180.016 171.081 175.982 175.433 175.853 180.763C175.818 182.191 176.073 183.599 176.328 185.009L176.328 185.009C176.509 186.006 176.689 187.003 176.768 188.01C176.958 190.441 176.359 193.206 174.302 194.513C173.434 195.064 172.402 195.291 171.385 195.438C160.84 196.962 147.922 189.822 144.914 179.596C141.962 169.561 147.144 157.18 153.951 149.241C158.181 144.309 163.653 140.784 169.143 137.248C172.491 135.091 175.845 132.931 178.928 130.445C181.818 128.115 184.671 125.603 186.5 122.372C188.328 119.141 188.985 115.033 187.342 111.703C185.996 108.975 183.343 107.08 180.742 105.222C177.471 102.885 174.282 100.607 173.875 96.8025C173.925 98.512 174.646 100.427 175.361 102.325C175.984 103.98 176.603 105.623 176.767 107.105C177.121 110.286 176.31 113.017 173.985 115.216ZM179.366 108.691C183.809 108.74 186.418 114.367 185.169 118.633C183.919 122.899 180.248 125.936 176.767 128.698C175.021 130.085 173.093 131.538 170.864 131.555L2.78725 132.813L2.05084 119.768L34.4667 119.737C38.6596 119.733 43.4137 119.973 46.1447 123.156C47.1379 124.313 48.9064 123.053 50.1181 122.127C52.9885 119.933 56.8861 119.826 60.498 119.812L179.092 119.33C180.364 119.325 182.075 118.898 182.033 117.626L174.058 117.326C176.922 115.353 178.899 112.139 179.366 108.691ZM56.0275 118.321C57.8064 114.023 59.1561 109.546 60.0499 104.98C60.3009 103.697 60.5167 102.384 60.3461 101.089C59.8341 97.2008 56.1441 94.6418 52.7541 92.6733C54.2011 92.6443 55.4352 91.6209 56.364 90.5103C56.6225 90.2012 56.8693 89.8797 57.1161 89.5583C57.7561 88.7245 58.396 87.8909 59.2394 87.2743C60.9694 86.0093 61.2464 85.9866 64.8202 85.6934C65.1883 85.6632 65.5912 85.6302 66.0343 85.5926C69.1772 85.3261 76.7782 82.4608 82.3282 80.3686C85.1594 79.3013 87.4569 78.4353 88.3564 78.2181C100.666 75.2462 109.198 79.1371 111.119 81.2342C112.168 82.3787 112.425 84.0199 112.636 85.5582C113.584 92.4786 114.532 99.5079 113.534 106.421C113.347 107.712 113.003 109.134 111.909 109.843C110.812 110.554 109.779 111.364 108.827 112.259C107.3 113.695 105.928 116.025 107.114 117.753L56.0275 118.321ZM126.093 23.2192C125.547 22.6945 124.562 22.7366 124.062 23.306C123.563 23.8754 123.65 24.8579 124.241 25.3312C126.239 26.9315 127.772 29.1061 128.608 31.5263C127.522 31.0782 126.326 30.8994 125.157 31.0102C126.364 33.7651 127.183 36.6896 127.584 39.6707L123.815 37.4211C123.477 37.2196 123.115 37.0114 122.722 37.023C122.329 37.0346 121.92 37.3681 121.983 37.7565C123.394 38.1847 124.122 39.8509 123.98 41.3197C123.837 42.7885 123.041 44.1014 122.265 45.3561L118.528 51.3965C119.348 52.3545 120.903 51.4754 121.712 50.5073C124.042 47.7173 125.436 44.1574 125.62 40.526C126.069 40.5843 126.458 40.8536 126.843 41.1204C127.287 41.428 127.726 41.7323 128.248 41.7061C128.966 41.67 129.509 40.972 129.62 40.2614C129.732 39.5509 129.518 38.8339 129.307 38.1464L127.573 32.5139C128.986 32.6671 129.624 34.0947 130.243 35.4814C130.422 35.8824 130.599 36.2799 130.794 36.6422C131.893 38.6924 134.02 39.9421 136.043 41.0885C133.847 45.1567 131.489 49.1915 128.33 52.5658C125.17 55.9402 121.12 58.6405 116.572 59.4562C115.808 59.5932 115.011 59.6751 114.263 59.4673C113.326 59.207 112.595 58.5388 111.866 57.8724C111.621 57.6476 111.375 57.4229 111.121 57.2142C108.582 55.1226 105.237 54.6159 101.891 54.1092C98.5421 53.6019 95.193 53.0946 92.6538 50.9969L92.5815 50.9369C92.3029 50.7049 92.0132 50.4636 91.6579 50.4097C91.2719 50.3511 90.8086 50.6484 90.8696 51.0343C90.9173 51.3365 90.5511 51.9566 89.9353 51.6246C87.561 50.3446 86.8716 47.5572 86.2452 45.0249C86.0299 44.1542 85.822 43.3136 85.5556 42.5749C85.4058 42.1596 84.7584 42.3705 84.481 42.714C84.4589 42.7414 84.4364 42.7697 84.4136 42.7983C84.1509 43.1282 83.8432 43.5146 83.451 43.4099C82.9827 41.6872 83.1459 39.74 83.3038 37.8562C83.368 37.0892 83.4314 36.3327 83.451 35.6061C83.4528 35.5406 83.4729 35.3431 83.5046 35.0336L83.5047 35.0326L83.5047 35.0321L83.5048 35.031L83.5049 35.0306C83.8675 31.4846 85.7269 13.3044 78.7302 10.0458C80.3938 9.71774 83.0783 10.0213 85.457 11.4812C87.8636 12.9581 89.5932 15.6659 89.4789 15.8091C91.1411 15.5655 92.6993 14.9233 94.26 14.2801C95.5779 13.7369 96.8976 13.193 98.283 12.8878C99.9649 12.5174 101.702 12.508 103.425 12.5002L105.699 12.49C108.149 9.8267 108.054 6.90924 107.944 3.52594C107.923 2.88544 107.902 2.22825 107.897 1.55293C112.144 2.11094 116.645 10.1196 118.063 14.9245C118.656 16.9315 120.406 18.1648 122.176 19.412C123.717 20.4975 125.272 21.5935 126.093 23.2192ZM53.7166 79.8748C54.2029 79.7512 54.6863 79.6284 55.163 79.5022C62.4576 77.5712 69.266 74.1727 76.0152 70.7969C84.0564 66.775 92.2362 62.6562 98.6872 56.3916C99.1858 55.9074 99.9766 55.9409 100.666 56.0298C103.214 56.3585 105.721 57.0093 108.107 57.962C109.357 58.4612 110.764 59.3184 110.773 60.6655C110.776 61.1397 110.594 61.5932 110.415 62.0324L109.213 64.9787C108.701 66.2356 108.179 67.5395 108.224 68.8963C108.268 70.2532 109.038 71.6853 110.343 72.0581C111.647 72.4308 113.259 71.2165 112.922 69.9015C112.345 67.6497 111.949 65.3511 111.742 63.0357C114.284 68.0727 113.407 74.0827 112.47 79.6469C109.105 77.8733 105.583 76.3987 101.959 75.2462C100.714 74.8504 99.3188 74.5015 98.1429 75.0704C95.2637 76.4632 89.8445 76.8343 89.3109 76.46C88.7772 76.0857 88.0472 76.2662 87.4324 76.4824C86.4422 76.8307 84.5551 77.5667 82.3006 78.4461L82.3005 78.4462C76.7683 80.6041 69.0242 83.6248 66.8921 83.895C66.3309 83.9661 65.7665 84.0188 65.2022 84.0714L65.2019 84.0715C63.9816 84.1854 62.7619 84.2992 61.5758 84.5994C59.8413 85.0384 58.1314 85.9483 57.2133 87.4848C56.5274 87.1073 56.0993 86.4399 55.6687 85.7688L55.6687 85.7687C55.4609 85.4448 55.2526 85.1201 55.0145 84.8267C54.283 83.9252 52.7472 83.3688 52.0458 84.2939C51.4306 82.1885 48.3155 81.3757 46.751 82.9124C46.5092 83.1499 46.3075 83.4236 46.1058 83.6972C45.8961 83.9817 45.6865 84.2661 45.4319 84.5097C44.9324 84.9877 44.1329 85.2821 43.5534 84.9053C45.9219 81.8548 49.909 80.842 53.7166 79.8748ZM45.9962 118.11C44.2092 118.753 42.2375 118.126 40.4646 117.445C38.7888 116.801 37.0395 116.032 36.0214 114.553C34.7962 112.772 34.9283 110.423 35.1088 108.269L35.8651 99.2453C34.7436 100.189 33.9199 101.482 33.5383 102.897C32.632 100.897 33.98 98.2252 36.1268 97.7669C35.2198 97.0153 33.727 97.5084 33.0868 98.4974C32.4467 99.4863 32.4612 100.76 32.6484 101.923C32.6988 102.237 32.7602 102.55 32.8217 102.863L32.8217 102.863L32.8217 102.863L32.8218 102.864L32.8218 102.864C32.9882 103.712 33.1547 104.56 33.1034 105.419C31.7559 103.312 31.4991 100.546 32.4356 98.2271C32.8597 97.1768 33.6115 96.1492 34.7109 95.8787C35.8103 95.6081 37.1709 96.5069 36.9888 97.6249C36.5714 100.187 37.7655 102.817 39.5967 104.656C41.4279 106.495 43.8275 107.654 46.2497 108.585C47.1411 108.927 48.2495 109.712 47.8148 110.562C47.3608 111.451 47.0478 112.456 47.2037 113.442C47.3596 114.428 48.0811 115.369 49.0639 115.539C50.2752 115.749 51.3532 114.81 52.224 113.942L57.3688 108.813C56.6832 110.719 55.879 112.582 54.9622 114.388C54.3343 115.625 53.6161 116.878 52.4809 117.675C51.3457 118.472 49.6839 118.679 48.6101 117.801C48.0118 117.312 47.1955 117.638 46.4357 117.94C46.2863 118 46.1392 118.059 45.9962 118.11ZM45.487 100.164C45.0071 99.8454 44.5267 99.5267 44.029 99.2458C42.4872 98.3756 40.4396 97.9076 39.0242 98.9714C38.5705 97.5102 39.4674 95.9409 40.6373 94.9555C42.7069 93.2123 45.7411 92.701 48.2672 93.6698C50.6622 94.5884 53.0932 95.5883 54.9956 97.3096C56.898 99.031 58.1987 101.634 57.7099 104.153C57.1749 104.283 56.7284 103.854 56.3111 103.452C56.2315 103.375 56.153 103.3 56.0751 103.229C54.8919 102.158 53.269 102.129 51.6152 102.1C50.6095 102.082 49.5925 102.064 48.6558 101.811C47.4983 101.499 46.4937 100.832 45.487 100.164ZM49.155 113.18C49.6308 111.988 49.9217 110.677 49.6616 109.42C49.4015 108.164 48.4947 106.987 47.247 106.691C44.3602 106.008 41.7362 104.266 39.9859 101.87C39.6332 101.387 39.3463 100.634 39.8159 100.264C40.0085 100.112 40.271 100.089 40.516 100.093C42.0968 100.117 43.4798 100.94 44.8652 101.765C45.4256 102.099 45.9864 102.433 46.5608 102.714C47.9345 103.386 49.4482 103.771 50.9762 103.836C51.2824 103.849 51.592 103.85 51.9019 103.851C52.8772 103.853 53.8556 103.856 54.7418 104.237C55.9097 104.739 56.7712 106.259 56.042 107.301C54.311 109.773 51.8932 111.666 49.5126 113.52L49.155 113.18ZM136.777 42.5098C137.042 42.0295 137.437 41.4779 137.982 41.54C138.687 41.6204 138.829 42.5841 138.733 43.2881C138.045 48.2829 134.955 52.7238 131.023 55.878C127.092 59.0323 122.362 61.0292 117.578 62.6122C117.249 62.721 116.927 62.9261 116.61 63.1276C116.005 63.5128 115.421 63.8844 114.854 63.5438C114.199 63.1513 114.366 62.0745 114.962 61.5973C115.502 61.1644 116.221 61.0715 116.914 60.9819C116.985 60.9728 117.056 60.9637 117.126 60.9542C121.752 60.3311 125.883 57.5851 129.044 54.1481C132.204 50.7112 134.516 46.5958 136.777 42.5098ZM51.001 84.5821C51.4177 85.0789 51.8769 85.6263 52.5094 85.6126C53.0414 85.601 53.3728 86.0333 53.7162 86.4812C53.9597 86.7988 54.2092 87.1242 54.5404 87.3048C55.3327 87.7369 55.4008 88.9401 54.8808 89.6779C54.3608 90.4158 53.4584 90.7749 52.5854 91.0031C50.8052 91.4684 48.9256 91.5488 47.1122 91.2372C45.9296 91.034 44.7037 90.618 43.9584 89.6772C43.213 88.7365 43.1918 87.1561 44.1787 86.4734C44.5089 86.2451 44.9063 86.1386 45.3015 86.0328C45.7727 85.9066 46.2407 85.7813 46.5873 85.4511C46.8446 85.206 46.9988 84.8793 47.1527 84.553C47.314 84.2112 47.475 83.87 47.754 83.6236C48.2059 83.2248 48.8904 83.1703 49.459 83.3696C50.0277 83.5689 50.4951 83.9861 50.8855 84.4452C50.9034 84.4662 50.9213 84.4874 50.9393 84.5087C50.9594 84.5327 50.9797 84.5568 51 84.581L51.0003 84.5814L51.0006 84.5818L51.001 84.5821ZM47.6677 121.311C47.4848 121.383 47.2787 121.395 47.0889 121.344C46.9052 121.294 46.7378 121.187 46.6167 121.04C46.1243 120.443 46.8107 119.364 47.5598 119.557C48.3089 119.751 48.3874 121.027 47.6677 121.311ZM108.571 117.566C108.389 117.784 107.945 117.761 107.897 117.481C107.703 116.327 107.611 114.908 108.564 114.231L108.726 116.749C108.744 117.033 108.753 117.347 108.571 117.566ZM99.0064 15.5958C100.042 16.2813 100.858 17.2922 101.311 18.4486C101.403 18.6843 101.607 18.8401 101.812 18.9972C101.92 19.0798 102.029 19.1627 102.122 19.2579C102.392 19.5341 102.437 20.1243 102.058 20.2014C101.893 20.2351 101.731 20.144 101.586 20.0574C99.2646 18.6708 96.4422 17.5512 93.9102 18.4983C94.3265 18.711 94.5367 19.257 94.3706 19.6942C94.8874 19.7129 95.3693 19.9454 95.8335 20.1734L97.0602 20.7757L96.9316 21.138C95.083 20.1962 92.825 20.0983 90.9018 20.8765C91.541 20.9737 92.1922 20.9914 92.8357 20.9293L95.6507 22.3488C95.8594 22.454 96.0796 22.5697 96.197 22.772C96.3144 22.9742 96.2698 23.2877 96.0514 23.3711C94.356 21.875 91.9576 21.2135 89.7355 21.6289C89.4762 21.6774 89.2988 21.3155 89.4088 21.0757C89.5189 20.8358 89.7828 20.7127 90.0282 20.616C91.26 20.1307 92.5591 19.8169 93.8765 19.6862C93.2175 19.075 92.4542 18.5766 91.6296 18.2193C91.4939 17.7546 92.1639 17.3093 92.5394 17.6146C95.3925 17.055 98.4492 17.6102 100.924 19.1376C100.944 18.652 100.584 18.2436 100.247 17.8932L97.0888 14.6079C98.9324 14.8416 100.74 15.361 102.426 16.1418C102.808 16.3184 103.184 16.5091 103.53 16.7484C104.831 17.6497 105.605 19.262 105.496 20.8416C104.708 19.1748 103.46 17.7282 101.927 16.7042C101.051 16.1189 100.058 15.6632 99.0064 15.5958ZM105.502 30.9357C105.323 29.5418 105.315 28.0549 105.977 26.8157C106.176 26.4451 106.451 26.089 106.841 25.9337C107.438 25.696 108.126 25.9994 108.597 26.437C109.765 27.5225 110.014 29.281 109.914 30.8733C109.87 31.5652 109.769 32.2729 109.43 32.8775C109.091 33.4821 108.471 33.9685 107.778 33.9788C107.082 33.989 106.447 33.5184 106.085 32.924C105.724 32.3295 105.591 31.6261 105.502 30.9357ZM88.8672 36.1213C87.5531 34.109 87.6417 31.2784 89.0791 29.3524C89.2509 29.1222 89.4462 28.8992 89.7013 28.7676C90.1985 28.5113 90.8336 28.6659 91.2643 29.0228C91.695 29.3798 91.9537 29.9026 92.1412 30.4298C92.6964 31.9914 92.7194 33.7371 92.2055 35.3128C91.8938 36.2684 91.121 37.3024 90.1313 37.1296C89.5849 37.0341 89.1706 36.5859 88.8672 36.1213ZM101.49 46.4571C101.648 46.4132 101.805 46.3696 101.922 46.2583C102.168 46.0225 102.081 45.5669 101.802 45.3718C101.522 45.1766 101.13 45.2104 100.832 45.3758C100.53 45.5432 100.29 45.8745 100.341 46.216C100.392 46.5575 100.828 46.8125 101.109 46.6117C101.221 46.532 101.356 46.4945 101.49 46.4571ZM105.039 40.9088C107.221 40.4251 108.44 40.4864 110.312 40.9636L110.706 41.0666C112.574 41.5546 113.741 41.5567 116.111 40.7878C116.395 40.6959 116.699 40.8513 116.791 41.1349C116.883 41.4185 112.557 42.6483 110.58 42.1486L110.215 42.0537C108.395 41.5752 107.335 41.5055 105.272 41.9628C104.981 42.0273 104.693 41.8436 104.629 41.5526C104.564 41.2615 104.748 40.9733 105.039 40.9088ZM122.176 35.6955C122.044 35.428 121.721 35.3179 121.453 35.4496C117.614 37.3405 115.487 37.5868 111.985 37.1396L111.102 37.0301C111.001 37.0186 110.913 37.0094 110.819 37.0003L110.504 36.9723C108.42 36.8083 106.767 37.1622 104.646 38.4294C104.391 38.5822 104.307 38.9136 104.46 39.1695C104.613 39.4255 104.944 39.5091 105.2 39.3562C107.173 38.1772 108.629 37.8848 110.576 38.0618C110.706 38.0736 110.813 38.0842 110.938 38.098L112.233 38.2574C115.711 38.6615 122.307 35.963 122.176 35.6955ZM95.5395 40.7629C95.8367 40.7417 96.0948 40.9656 96.1159 41.263C96.1371 41.5604 95.9133 41.8186 95.6161 41.8397C94.3863 41.9273 93.5391 42.3458 92.2674 43.3711L91.8076 43.7512C91.6736 43.8634 91.5221 43.9905 91.4809 44.0248C90.36 44.9597 89.6134 45.4693 88.6231 45.8757C88.3474 45.9888 86.4436 46.3763 87.9192 45.5811C89.3948 44.7858 91.3175 42.7541 91.3175 42.7541L91.599 42.5236C93.0261 41.3744 94.0469 40.8692 95.5395 40.7629ZM96.3491 43.3453C96.2321 43.0711 95.9151 42.9437 95.6411 43.0607C94.2868 43.6391 93.5245 44.3783 92.2431 46.0562L91.8475 46.5712C91.5882 46.903 91.3709 47.2378 91.16 47.5628C90.695 48.2793 90.2612 48.9477 89.4781 49.4296C88.34 50.1301 89.9665 49.7628 90.2203 49.6067C91.2308 48.9849 91.8863 48.2989 92.9091 46.9623L93.2059 46.5742C94.3161 45.134 94.9643 44.5236 96.0647 44.0536C96.3387 43.9366 96.466 43.6195 96.3491 43.3453Z" fill="#00160A"/>
<path fill-rule="evenodd" clip-rule="evenodd" d="M98.2389 41.6307C97.7975 41.2328 97.1564 41.1109 96.7253 40.7017C96.3166 40.3139 96.1602 39.6815 96.341 39.1477C96.5218 38.6139 97.0302 38.2069 97.5903 38.1475C99.197 37.9771 100.804 37.8066 102.41 37.6362C102.792 37.5958 103.213 37.5654 103.522 37.7928C103.994 38.1399 103.92 38.8986 103.579 39.3749C103.238 39.8511 102.712 40.1581 102.301 40.5755C101.772 41.1136 101.441 41.8429 101.384 42.5958C101.342 43.155 101.403 43.8213 100.96 44.1648C100.404 44.5961 99.5822 44.0865 99.2419 43.4705C98.9015 42.8545 98.7615 42.1019 98.2389 41.6307H98.2389Z" fill="#FFB61D"/>
<path fill-rule="evenodd" clip-rule="evenodd" d="M163.39 117.822C166.803 117.836 171.66 117.713 174.141 115.368C176.466 113.169 177.276 110.438 176.923 107.256C176.57 104.075 174.124 100.154 174.031 96.9545C174.761 103.785 184.46 105.695 187.498 111.855C189.141 115.185 188.484 119.293 186.656 122.524C184.827 125.755 181.974 128.267 179.084 130.597C170.944 137.161 160.915 141.453 154.107 149.393C147.299 157.332 142.118 169.713 145.07 179.748C148.078 189.974 160.996 197.114 171.541 195.59C172.558 195.443 173.59 195.216 174.457 194.665C176.515 193.358 177.114 190.593 176.924 188.162C176.734 185.731 175.949 183.353 176.009 180.915C176.138 175.585 180.171 171.233 184.181 167.72C194.067 159.058 205.933 151.319 210.479 138.982C213.581 130.562 212.594 120.738 207.879 113.104C201.476 102.738 189.16 96.9411 183.387 86.211C183.216 88.3867 182.832 90.5457 182.243 92.6469C181.99 93.5464 181.558 94.573 180.647 94.7768C179.69 94.9908 190.376 79.7989 168.899 60.8559C160.913 53.8123 151.015 48.6978 141.118 44.2622C137.726 55.0201 127.797 63.4153 116.63 64.9677C115.867 65.0737 115.693 66.0867 115.71 66.8572C115.952 77.4965 116.195 88.1358 116.437 98.7751C116.542 103.398 116.236 108.851 112.368 111.382C110.774 112.426 110.28 114.833 111.334 116.421C112.388 118.009 114.798 118.486 116.378 117.42C114.545 114.323 116.64 109.692 120.175 109.027C121.477 108.781 121.892 107.151 122.035 105.833C122.675 99.9231 123.315 94.0136 123.956 88.1041C124.203 94.8459 124.45 101.588 124.697 108.33C131.256 105.373 138.9 110.687 145.948 109.241C140.113 105.196 134.728 100.011 132.276 93.3462C129.823 86.681 130.971 78.3383 136.431 73.7998C133.179 78.999 132.536 85.7467 134.75 91.4666C136.884 96.9821 141.343 101.238 145.889 105.017C147.299 106.189 148.814 107.462 149.25 109.242C149.686 111.023 148.316 113.3 146.512 112.979C140.089 110.562 133.131 109.579 126.29 110.121C124.17 110.289 121.946 110.649 120.295 111.989C118.643 113.328 117.852 115.941 119.13 117.641C133.884 117.701 148.637 117.762 163.39 117.822Z" fill="white"/>
<path fill-rule="evenodd" clip-rule="evenodd" d="M171.385 195.438C172.402 195.291 173.434 195.064 174.302 194.513C176.359 193.206 176.958 190.441 176.768 188.01C176.578 185.579 175.794 183.201 175.853 180.763C175.982 175.433 180.016 171.081 184.025 167.568C193.911 158.906 205.777 151.167 210.323 138.83C212.143 133.891 189.29 148.996 176.768 166.779C167.945 179.309 167.026 196.068 171.385 195.438Z" fill="#E7EAEE"/>
<path fill-rule="evenodd" clip-rule="evenodd" d="M179.792 72.6001C178.243 68.8676 173.924 65.2739 168.743 60.7039C160.757 53.6604 150.859 48.5458 140.962 44.1102C150.666 51.1835 162.497 57.0877 170.916 65.9651C175.019 70.292 177.795 79.0118 180.115 81.8139C181.89 83.959 184.21 83.2448 179.792 72.6001Z" fill="#E7EAEE"/>
<path fill-rule="evenodd" clip-rule="evenodd" d="M111.408 71.136C111.76 70.3672 112.007 66.8189 110.153 66.8189C108.997 68.1325 109.115 70.6533 111.408 71.136Z" fill="#FFB61D"/>
<path fill-rule="evenodd" clip-rule="evenodd" d="M55.1628 79.5022C50.9537 80.6165 46.2243 81.4652 43.5532 84.9053C44.1328 85.2821 44.9323 84.9877 45.4317 84.5097C45.9312 84.0317 46.2576 83.3969 46.7508 82.9124C48.3154 81.3757 51.4304 82.1885 52.0456 84.2939C52.747 83.3688 54.2828 83.9252 55.0143 84.8267C55.7459 85.7282 56.1962 86.9252 57.2131 87.4848C58.1312 85.9483 59.8411 85.0384 61.5757 84.5994C63.3102 84.1604 65.1169 84.1199 66.8919 83.895C69.8929 83.5147 72.8252 82.5974 75.5083 81.1996C75.3452 81.5345 86.462 76.7113 96.6347 76.0121C104.063 75.5016 111.05 78.8984 112.47 79.6469C113.407 74.0827 114.284 68.0727 111.742 63.0357C111.949 65.3511 112.344 67.6497 112.922 69.9015C113.259 71.2165 111.647 72.4308 110.342 72.0581C109.038 71.6853 108.268 70.2532 108.223 68.8963C108.179 67.5395 108.701 66.2356 109.213 64.9787C109.614 63.9966 110.014 63.0145 110.415 62.0324C110.594 61.5932 110.776 61.1397 110.772 60.6655C110.764 59.3184 109.357 58.4612 108.107 57.962C105.72 57.0093 103.214 56.3585 100.666 56.0298C99.9764 55.9409 99.1857 55.9074 98.6871 56.3916C92.236 62.6562 84.0563 66.775 76.0151 70.7969C69.2658 74.1727 62.4574 77.5712 55.1628 79.5022Z" fill="white"/>
<path fill-rule="evenodd" clip-rule="evenodd" d="M57.2131 87.4848C58.1312 85.9483 59.8411 85.0384 61.5757 84.5994C63.3102 84.1604 65.1169 84.1199 66.8919 83.895C67.5845 83.8072 70.4285 83.3581 74.1201 82.0621C79.4578 80.1882 86.785 77.1967 93.7659 76.4356C102.879 75.4421 111.004 78.8744 112.47 79.6469C113.407 74.0827 110.237 74.7509 108.535 74.575C70.9119 70.6868 56.1962 86.9252 57.2131 87.4848Z" fill="#E7EAEE"/>
</svg>
